<svg width="1467" height="910" viewBox="0 0 1467 910" fill="none" xmlns="http://www.w3.org/2000/svg">
<g filter="url(#filter0_f_3_20)">
<ellipse cx="1270" cy="202.824" rx="97" ry="102.824" fill="#F9FFAF"/>
</g>
<path fill-rule="evenodd" clip-rule="evenodd" d="M1 542L35.8 564.923C69.4 587.847 137.8 633.694 206.2 664.258C275.8 694.823 344.2 710.105 412.6 702.464C481 694.823 549.4 664.258 617.8 679.54C686.2 694.823 755.8 755.952 824.2 755.952C892.6 755.952 961 694.823 1029.4 687.182C1097.8 679.54 1166.2 725.387 1235.8 710.105C1304.2 694.823 1372.6 618.411 1406.2 580.206L1441 542V908.774H1406.2C1372.6 908.774 1304.2 908.774 1235.8 908.774C1166.2 908.774 1097.8 908.774 1029.4 908.774C961 908.774 892.6 908.774 824.2 908.774C755.8 908.774 686.2 908.774 617.8 908.774C549.4 908.774 481 908.774 412.6 908.774C344.2 908.774 275.8 908.774 206.2 908.774C137.8 908.774 69.4 908.774 35.8 908.774H1V542Z" fill="#BCC0C2"/>
<path fill-rule="evenodd" clip-rule="evenodd" d="M1 542L35.8 564.923C69.4 587.847 137.8 633.694 206.2 664.258C275.8 694.823 344.2 710.105 412.6 702.464C481 694.823 549.4 664.258 617.8 679.54C686.2 694.823 755.8 755.952 824.2 755.952C892.6 755.952 961 694.823 1029.4 687.182C1097.8 679.54 1166.2 725.387 1235.8 710.105C1304.2 694.823 1372.6 618.411 1406.2 580.206L1441 542V908.774H1406.2C1372.6 908.774 1304.2 908.774 1235.8 908.774C1166.2 908.774 1097.8 908.774 1029.4 908.774C961 908.774 892.6 908.774 824.2 908.774C755.8 908.774 686.2 908.774 617.8 908.774C549.4 908.774 481 908.774 412.6 908.774C344.2 908.774 275.8 908.774 206.2 908.774C137.8 908.774 69.4 908.774 35.8 908.774H1V542Z" fill="#9BEA6A" fill-opacity="0.2"/>
<path fill-rule="evenodd" clip-rule="evenodd" d="M1 542L35.8 564.923C69.4 587.847 137.8 633.694 206.2 664.258C275.8 694.823 344.2 710.105 412.6 702.464C481 694.823 549.4 664.258 617.8 679.54C686.2 694.823 755.8 755.952 824.2 755.952C892.6 755.952 961 694.823 1029.4 687.182C1097.8 679.54 1166.2 725.387 1235.8 710.105C1304.2 694.823 1372.6 618.411 1406.2 580.206L1441 542V908.774H1406.2C1372.6 908.774 1304.2 908.774 1235.8 908.774C1166.2 908.774 1097.8 908.774 1029.4 908.774C961 908.774 892.6 908.774 824.2 908.774C755.8 908.774 686.2 908.774 617.8 908.774C549.4 908.774 481 908.774 412.6 908.774C344.2 908.774 275.8 908.774 206.2 908.774C137.8 908.774 69.4 908.774 35.8 908.774H1V542Z" stroke="#B5C8B0"/>
<defs>
<filter id="filter0_f_3_20" x="1073" y="0" width="394" height="405.648" filterUnits="userSpaceOnUse" color-interpolation-filters="sRGB">
<feFlood flood-opacity="0" result="BackgroundImageFix"/>
<feBlend mode="normal" in="SourceGraphic" in2="BackgroundImageFix" result="shape"/>
<feGaussianBlur stdDeviation="50" result="effect1_foregroundBlur_3_20"/>
</filter>
</defs>
</svg>
